<svg xmlns="http://www.w3.org/2000/svg" version="1.1" xmlns:xlink="http://www.w3.org/1999/xlink" xmlns:svgjs="http://svgjs.dev/svgjs" width="1440" height="560" preserveAspectRatio="none" viewBox="0 0 1440 560"><g mask="url(&quot;#SvgjsMask3754&quot;)" fill="none"><rect width="1440" height="560" x="0" y="0" fill="url(&quot;#SvgjsLinearGradient3755&quot;)"></rect><g mask="url(&quot;#SvgjsMask3756&quot;)"><path d="M30 310L50 290L70 290L90 290M-10 290L10 310L30 310L50 310" stroke="rgba(255, 255, 255, 1)" stroke-width="3.33"></path><path d="M45 310 a5 5 0 1 0 10 0 a5 5 0 1 0 -10 0zM85 290 a5 5 0 1 0 10 0 a5 5 0 1 0 -10 0z" fill="rgba(255, 255, 255, 1)"></path><path d="M10 270L30 290M-10 270L10 270L30 270L50 270L70 270L90 270L110 270" stroke="rgba(255, 255, 255, 1)" stroke-width="3.33"></path><path d="M105 270 a5 5 0 1 0 10 0 a5 5 0 1 0 -10 0zM25 290 a5 5 0 1 0 10 0 a5 5 0 1 0 -10 0z" fill="rgba(255, 255, 255, 1)"></path><path d="M150 350L170 330L190 330M290 350L310 370L330 370L350 370L370 370L390 370M210 330L230 350M190 350L210 350L230 370L250 370M-10 310L10 330L30 330L50 330L70 330L90 350L110 350L130 350L150 350L170 350L190 350L210 330L230 330L250 350L270 350L290 350L310 350L330 350" stroke="rgba(255, 255, 255, 1)" stroke-width="3.33"></path><path d="M325 350 a5 5 0 1 0 10 0 a5 5 0 1 0 -10 0zM185 330 a5 5 0 1 0 10 0 a5 5 0 1 0 -10 0zM385 370 a5 5 0 1 0 10 0 a5 5 0 1 0 -10 0zM225 350 a5 5 0 1 0 10 0 a5 5 0 1 0 -10 0zM245 370 a5 5 0 1 0 10 0 a5 5 0 1 0 -10 0z" fill="rgba(255, 255, 255, 1)"></path><path d="M-10 250L10 250L30 250L50 250L70 250L90 250L110 250L130 250" stroke="rgba(255, 255, 255, 1)" stroke-width="3.33"></path><path d="M125 250 a5 5 0 1 0 10 0 a5 5 0 1 0 -10 0z" fill="rgba(255, 255, 255, 1)"></path><path d="M390 410L410 390M90 370L110 370L130 370M210 390L230 390M190 390L210 370M350 410L370 390L390 390M-10 330L10 350L30 350L50 350L70 350L90 370L110 390L130 390L150 390L170 390L190 390L210 390L230 410L250 410L270 410L290 410L310 410L330 410L350 410L370 410L390 410L410 410L430 410" stroke="rgba(61, 124, 245, 1)" stroke-width="3.33"></path><path d="M425 410 a5 5 0 1 0 10 0 a5 5 0 1 0 -10 0zM405 390 a5 5 0 1 0 10 0 a5 5 0 1 0 -10 0zM125 370 a5 5 0 1 0 10 0 a5 5 0 1 0 -10 0zM225 390 a5 5 0 1 0 10 0 a5 5 0 1 0 -10 0zM205 370 a5 5 0 1 0 10 0 a5 5 0 1 0 -10 0zM385 390 a5 5 0 1 0 10 0 a5 5 0 1 0 -10 0z" fill="rgba(61, 124, 245, 1)"></path><path d="M-10 230L10 230L30 230L50 230L70 230L90 230L110 230L130 230L150 230L170 230L190 230" stroke="rgba(255, 255, 255, 1)" stroke-width="3.33"></path><path d="M185 230 a5 5 0 1 0 10 0 a5 5 0 1 0 -10 0z" fill="rgba(255, 255, 255, 1)"></path><path d="M430 430L450 450L470 450L490 450L510 450L530 450M350 430L370 450L390 450L410 450L430 470M50 370L70 390L90 410M310 430L330 450L350 450M450 430L470 410L490 410M-10 350L10 370L30 370L50 370L70 370L90 390L110 410L130 410L150 410L170 410L190 410L210 410L230 430L250 430L270 430L290 430L310 430L330 430L350 430L370 430L390 430L410 430L430 430L450 430L470 430L490 430" stroke="rgba(61, 124, 245, 1)" stroke-width="3.33"></path><path d="M485 430 a5 5 0 1 0 10 0 a5 5 0 1 0 -10 0zM525 450 a5 5 0 1 0 10 0 a5 5 0 1 0 -10 0zM425 470 a5 5 0 1 0 10 0 a5 5 0 1 0 -10 0zM85 410 a5 5 0 1 0 10 0 a5 5 0 1 0 -10 0zM345 450 a5 5 0 1 0 10 0 a5 5 0 1 0 -10 0zM485 410 a5 5 0 1 0 10 0 a5 5 0 1 0 -10 0z" fill="rgba(61, 124, 245, 1)"></path><path d="M230 190L250 210M130 210L150 190M250 190L270 170L290 170L310 170L330 170M350 210L370 230L390 230L410 230L430 230M190 210L210 210L230 210M-10 210L10 210L30 210L50 210L70 210L90 210L110 210L130 210L150 210L170 210L190 210L210 190L230 190L250 190L270 190L290 190L310 190L330 210L350 210L370 210L390 210" stroke="rgba(61, 124, 245, 1)" stroke-width="3.33"></path><path d="M385 210 a5 5 0 1 0 10 0 a5 5 0 1 0 -10 0zM245 210 a5 5 0 1 0 10 0 a5 5 0 1 0 -10 0zM145 190 a5 5 0 1 0 10 0 a5 5 0 1 0 -10 0zM325 170 a5 5 0 1 0 10 0 a5 5 0 1 0 -10 0zM425 230 a5 5 0 1 0 10 0 a5 5 0 1 0 -10 0zM225 210 a5 5 0 1 0 10 0 a5 5 0 1 0 -10 0z" fill="rgba(61, 124, 245, 1)"></path><path d="M30 390L50 390M-10 370L10 390L30 390L50 410" stroke="rgba(255, 255, 255, 1)" stroke-width="3.33"></path><path d="M45 410 a5 5 0 1 0 10 0 a5 5 0 1 0 -10 0zM45 390 a5 5 0 1 0 10 0 a5 5 0 1 0 -10 0z" fill="rgba(255, 255, 255, 1)"></path><path d="M90 170L110 190L130 190L150 170L170 170M110 170L130 170M-10 190L10 190L30 190L50 190L70 190L90 170L110 170L130 150L150 150L170 150L190 150" stroke="rgba(255, 255, 255, 1)" stroke-width="3.33"></path><path d="M185 150 a5 5 0 1 0 10 0 a5 5 0 1 0 -10 0zM165 170 a5 5 0 1 0 10 0 a5 5 0 1 0 -10 0zM125 170 a5 5 0 1 0 10 0 a5 5 0 1 0 -10 0z" fill="rgba(255, 255, 255, 1)"></path><path d="M-10 390L10 410L30 410L50 430L70 430L90 430L110 430L130 430L150 430L170 430L190 430L210 430L230 450L250 450L270 450" stroke="rgba(61, 124, 245, 1)" stroke-width="3.33"></path><path d="M265 450 a5 5 0 1 0 10 0 a5 5 0 1 0 -10 0z" fill="rgba(61, 124, 245, 1)"></path><path d="M290 150L310 130L330 130L350 130M370 150L390 150L410 150L430 150L450 130M350 150L370 170L390 190L410 210L430 210L450 210L470 210L490 210M410 170L430 190L450 190M250 150L270 130M230 130L250 130M-10 170L10 170L30 170L50 170L70 170L90 150L110 150L130 130L150 130L170 130L190 130L210 130L230 130L250 150L270 150L290 150L310 150L330 150L350 150L370 150L390 170L410 170L430 170L450 150L470 150" stroke="rgba(61, 124, 245, 1)" stroke-width="3.33"></path><path d="M465 150 a5 5 0 1 0 10 0 a5 5 0 1 0 -10 0zM345 130 a5 5 0 1 0 10 0 a5 5 0 1 0 -10 0zM445 130 a5 5 0 1 0 10 0 a5 5 0 1 0 -10 0zM485 210 a5 5 0 1 0 10 0 a5 5 0 1 0 -10 0zM445 190 a5 5 0 1 0 10 0 a5 5 0 1 0 -10 0zM265 130 a5 5 0 1 0 10 0 a5 5 0 1 0 -10 0zM245 130 a5 5 0 1 0 10 0 a5 5 0 1 0 -10 0z" fill="rgba(61, 124, 245, 1)"></path><path d="M150 450L170 470L190 470M350 470L370 490L390 490L410 490L430 490L450 490L470 490L490 490M250 470L270 490L290 490L310 510L330 510L350 510M310 470L330 490L350 490M290 470L310 450M-10 410L10 430L30 430L50 450L70 450L90 450L110 450L130 450L150 450L170 450L190 450L210 450L230 470L250 470L270 470L290 470L310 470L330 470L350 470L370 470L390 470" stroke="rgba(61, 124, 245, 1)" stroke-width="3.33"></path><path d="M385 470 a5 5 0 1 0 10 0 a5 5 0 1 0 -10 0zM185 470 a5 5 0 1 0 10 0 a5 5 0 1 0 -10 0zM485 490 a5 5 0 1 0 10 0 a5 5 0 1 0 -10 0zM345 510 a5 5 0 1 0 10 0 a5 5 0 1 0 -10 0zM345 490 a5 5 0 1 0 10 0 a5 5 0 1 0 -10 0zM305 450 a5 5 0 1 0 10 0 a5 5 0 1 0 -10 0z" fill="rgba(61, 124, 245, 1)"></path><path d="M50 150L70 130L90 110L110 110L130 90L150 90M190 110L210 90L230 90L250 90L270 90M30 150L50 130L70 110L90 90L110 90M290 110L310 90M-10 150L10 150L30 150L50 150L70 150L90 130L110 130L130 110L150 110L170 110L190 110L210 110L230 110L250 110L270 110L290 110L310 110" stroke="rgba(255, 255, 255, 1)" stroke-width="3.33"></path><path d="M305 110 a5 5 0 1 0 10 0 a5 5 0 1 0 -10 0zM145 90 a5 5 0 1 0 10 0 a5 5 0 1 0 -10 0zM265 90 a5 5 0 1 0 10 0 a5 5 0 1 0 -10 0zM105 90 a5 5 0 1 0 10 0 a5 5 0 1 0 -10 0zM305 90 a5 5 0 1 0 10 0 a5 5 0 1 0 -10 0z" fill="rgba(255, 255, 255, 1)"></path></g></g><defs><mask id="SvgjsMask3754"><rect width="1440" height="560" fill="#ffffff"></rect></mask><linearGradient x1="15.28%" y1="-39.29%" x2="84.72%" y2="139.29%" gradientUnits="userSpaceOnUse" id="SvgjsLinearGradient3755"><stop stop-color="rgba(134, 255, 198, 1)" offset="0"></stop><stop stop-color="rgba(40, 149, 123, 1)" offset="1"></stop></linearGradient><mask id="SvgjsMask3756"><rect width="1440" height="560" fill="white"></rect><path d="M47.5 310 a2.5 2.5 0 1 0 5 0 a2.5 2.5 0 1 0 -5 0zM87.5 290 a2.5 2.5 0 1 0 5 0 a2.5 2.5 0 1 0 -5 0z" fill="black"></path><path d="M107.5 270 a2.5 2.5 0 1 0 5 0 a2.5 2.5 0 1 0 -5 0zM27.5 290 a2.5 2.5 0 1 0 5 0 a2.5 2.5 0 1 0 -5 0z" fill="black"></path><path d="M327.5 350 a2.5 2.5 0 1 0 5 0 a2.5 2.5 0 1 0 -5 0zM187.5 330 a2.5 2.5 0 1 0 5 0 a2.5 2.5 0 1 0 -5 0zM387.5 370 a2.5 2.5 0 1 0 5 0 a2.5 2.5 0 1 0 -5 0zM227.5 350 a2.5 2.5 0 1 0 5 0 a2.5 2.5 0 1 0 -5 0zM247.5 370 a2.5 2.5 0 1 0 5 0 a2.5 2.5 0 1 0 -5 0z" fill="black"></path><path d="M127.5 250 a2.5 2.5 0 1 0 5 0 a2.5 2.5 0 1 0 -5 0z" fill="black"></path><path d="M427.5 410 a2.5 2.5 0 1 0 5 0 a2.5 2.5 0 1 0 -5 0zM407.5 390 a2.5 2.5 0 1 0 5 0 a2.5 2.5 0 1 0 -5 0zM127.5 370 a2.5 2.5 0 1 0 5 0 a2.5 2.5 0 1 0 -5 0zM227.5 390 a2.5 2.5 0 1 0 5 0 a2.5 2.5 0 1 0 -5 0zM207.5 370 a2.5 2.5 0 1 0 5 0 a2.5 2.5 0 1 0 -5 0zM387.5 390 a2.5 2.5 0 1 0 5 0 a2.5 2.5 0 1 0 -5 0z" fill="black"></path><path d="M187.5 230 a2.5 2.5 0 1 0 5 0 a2.5 2.5 0 1 0 -5 0z" fill="black"></path><path d="M487.5 430 a2.5 2.5 0 1 0 5 0 a2.5 2.5 0 1 0 -5 0zM527.5 450 a2.5 2.5 0 1 0 5 0 a2.5 2.5 0 1 0 -5 0zM427.5 470 a2.5 2.5 0 1 0 5 0 a2.5 2.5 0 1 0 -5 0zM87.5 410 a2.5 2.5 0 1 0 5 0 a2.5 2.5 0 1 0 -5 0zM347.5 450 a2.5 2.5 0 1 0 5 0 a2.5 2.5 0 1 0 -5 0zM487.5 410 a2.5 2.5 0 1 0 5 0 a2.5 2.5 0 1 0 -5 0z" fill="black"></path><path d="M387.5 210 a2.5 2.5 0 1 0 5 0 a2.5 2.5 0 1 0 -5 0zM247.5 210 a2.5 2.5 0 1 0 5 0 a2.5 2.5 0 1 0 -5 0zM147.5 190 a2.5 2.5 0 1 0 5 0 a2.5 2.5 0 1 0 -5 0zM327.5 170 a2.5 2.5 0 1 0 5 0 a2.5 2.5 0 1 0 -5 0zM427.5 230 a2.5 2.5 0 1 0 5 0 a2.5 2.5 0 1 0 -5 0zM227.5 210 a2.5 2.5 0 1 0 5 0 a2.5 2.5 0 1 0 -5 0z" fill="black"></path><path d="M47.5 410 a2.5 2.5 0 1 0 5 0 a2.5 2.5 0 1 0 -5 0zM47.5 390 a2.5 2.5 0 1 0 5 0 a2.5 2.5 0 1 0 -5 0z" fill="black"></path><path d="M187.5 150 a2.5 2.5 0 1 0 5 0 a2.5 2.5 0 1 0 -5 0zM167.5 170 a2.5 2.5 0 1 0 5 0 a2.5 2.5 0 1 0 -5 0zM127.5 170 a2.5 2.5 0 1 0 5 0 a2.5 2.5 0 1 0 -5 0z" fill="black"></path><path d="M267.5 450 a2.5 2.5 0 1 0 5 0 a2.5 2.5 0 1 0 -5 0z" fill="black"></path><path d="M467.5 150 a2.5 2.5 0 1 0 5 0 a2.5 2.5 0 1 0 -5 0zM347.5 130 a2.5 2.5 0 1 0 5 0 a2.5 2.5 0 1 0 -5 0zM447.5 130 a2.5 2.5 0 1 0 5 0 a2.5 2.5 0 1 0 -5 0zM487.5 210 a2.5 2.5 0 1 0 5 0 a2.5 2.5 0 1 0 -5 0zM447.5 190 a2.5 2.5 0 1 0 5 0 a2.5 2.5 0 1 0 -5 0zM267.5 130 a2.5 2.5 0 1 0 5 0 a2.5 2.5 0 1 0 -5 0zM247.5 130 a2.5 2.5 0 1 0 5 0 a2.5 2.5 0 1 0 -5 0z" fill="black"></path><path d="M387.5 470 a2.5 2.5 0 1 0 5 0 a2.5 2.5 0 1 0 -5 0zM187.5 470 a2.5 2.5 0 1 0 5 0 a2.5 2.5 0 1 0 -5 0zM487.5 490 a2.5 2.5 0 1 0 5 0 a2.5 2.5 0 1 0 -5 0zM347.5 510 a2.5 2.5 0 1 0 5 0 a2.5 2.5 0 1 0 -5 0zM347.5 490 a2.5 2.5 0 1 0 5 0 a2.5 2.5 0 1 0 -5 0zM307.5 450 a2.5 2.5 0 1 0 5 0 a2.5 2.5 0 1 0 -5 0z" fill="black"></path><path d="M307.5 110 a2.5 2.5 0 1 0 5 0 a2.5 2.5 0 1 0 -5 0zM147.5 90 a2.5 2.5 0 1 0 5 0 a2.5 2.5 0 1 0 -5 0zM267.5 90 a2.5 2.5 0 1 0 5 0 a2.5 2.5 0 1 0 -5 0zM107.5 90 a2.5 2.5 0 1 0 5 0 a2.5 2.5 0 1 0 -5 0zM307.5 90 a2.5 2.5 0 1 0 5 0 a2.5 2.5 0 1 0 -5 0z" fill="black"></path></mask></defs></svg>