<svg xmlns="http://www.w3.org/2000/svg" version="1.1" xmlns:xlink="http://www.w3.org/1999/xlink" xmlns:svgjs="http://svgjs.dev/svgjs" width="1440" height="560" preserveAspectRatio="none" viewBox="0 0 1440 560"><g mask="url(&quot;#SvgjsMask2528&quot;)" fill="none"><rect width="1440" height="560" x="0" y="0" fill="url(&quot;#SvgjsLinearGradient2529&quot;)"></rect><g transform="translate(0, 0)" stroke-linecap="round"><path d="M408 240.74 L408 319.26" stroke-width="18" stroke="rgba(71, 143, 221, 1)"></path><path d="M432 241.41 L432 318.59" stroke-width="18" stroke="rgba(71, 143, 221, 1)"></path><path d="M456 177.06 L456 231.06" stroke-width="18" stroke="rgba(17, 221, 148, 1)"></path><path d="M456 258.06 L456 312.06" stroke-width="18" stroke="rgba(17, 221, 148, 1)"></path><path d="M456 339.06 L456 382.94" stroke-width="18" stroke="rgba(71, 143, 221, 1)"></path><path d="M480 271.9 L480 288.1" stroke-width="18" stroke="rgba(17, 221, 148, 1)"></path><path d="M504 178.54 L504 381.46" stroke-width="18" stroke="rgba(71, 143, 221, 1)"></path><path d="M528 249.91 L528 310.1" stroke-width="18" stroke="rgba(71, 143, 221, 1)"></path><path d="M552 269.15 L552 290.85" stroke-width="18" stroke="rgba(71, 143, 221, 1)"></path><path d="M576 239.13 L576 257.13" stroke-width="18" stroke="rgba(71, 143, 221, 1)"></path><path d="M576 284.13 L576 320.88" stroke-width="18" stroke="rgba(71, 143, 221, 1)"></path><path d="M600 181.95 L600 235.95" stroke-width="18" stroke="rgba(71, 143, 221, 1)"></path><path d="M600 262.95 L600 378.05" stroke-width="18" stroke="rgba(17, 221, 148, 1)"></path><path d="M624 217.92 L624 235.92" stroke-width="18" stroke="rgba(17, 221, 148, 1)"></path><path d="M624 262.91999999999996 L624 280.91999999999996" stroke-width="18" stroke="rgba(71, 143, 221, 1)"></path><path d="M624 307.91999999999996 L624 342.08" stroke-width="18" stroke="rgba(71, 143, 221, 1)"></path><path d="M648 228.82 L648 246.82" stroke-width="18" stroke="rgba(71, 143, 221, 1)"></path><path d="M648 273.82 L648 331.18" stroke-width="18" stroke="rgba(71, 143, 221, 1)"></path><path d="M672 224.88 L672 242.88" stroke-width="18" stroke="rgba(71, 143, 221, 1)"></path><path d="M672 269.88 L672 335.12" stroke-width="18" stroke="rgba(71, 143, 221, 1)"></path><path d="M696 164.47 L696 218.47" stroke-width="18" stroke="rgba(71, 143, 221, 1)"></path><path d="M696 245.47 L696 395.53" stroke-width="18" stroke="rgba(17, 221, 148, 1)"></path><path d="M720 236.65 L720 323.36" stroke-width="18" stroke="rgba(17, 221, 148, 1)"></path><path d="M744 209.52 L744 227.52" stroke-width="18" stroke="rgba(17, 221, 148, 1)"></path><path d="M744 254.52 L744 272.52" stroke-width="18" stroke="rgba(17, 221, 148, 1)"></path><path d="M744 299.52 L744 350.48" stroke-width="18" stroke="rgba(17, 221, 148, 1)"></path><path d="M768 190.74 L768 262.74" stroke-width="18" stroke="rgba(71, 143, 221, 1)"></path><path d="M768 289.74 L768 307.74" stroke-width="18" stroke="rgba(17, 221, 148, 1)"></path><path d="M768 334.74 L768 369.26" stroke-width="18" stroke="rgba(71, 143, 221, 1)"></path><path d="M792 183.97 L792 376.03" stroke-width="18" stroke="rgba(17, 221, 148, 1)"></path><path d="M816 249.87 L816 310.13" stroke-width="18" stroke="rgba(17, 221, 148, 1)"></path><path d="M840 249.82 L840 310.18" stroke-width="18" stroke="rgba(17, 221, 148, 1)"></path><path d="M864 233.99 L864 251.99" stroke-width="18" stroke="rgba(71, 143, 221, 1)"></path><path d="M864 278.99 L864 326.01" stroke-width="18" stroke="rgba(71, 143, 221, 1)"></path><path d="M888 269.95 L888 290.05" stroke-width="18" stroke="rgba(17, 221, 148, 1)"></path><path d="M912 175.72 L912 265.72" stroke-width="18" stroke="rgba(71, 143, 221, 1)"></path><path d="M912 292.72 L912 384.28" stroke-width="18" stroke="rgba(71, 143, 221, 1)"></path><path d="M936 191.97 L936 209.97" stroke-width="18" stroke="rgba(71, 143, 221, 1)"></path><path d="M936 236.97 L936 254.97" stroke-width="18" stroke="rgba(17, 221, 148, 1)"></path><path d="M936 281.97 L936 368.03" stroke-width="18" stroke="rgba(71, 143, 221, 1)"></path><path d="M960 190.69 L960 369.31" stroke-width="18" stroke="rgba(71, 143, 221, 1)"></path><path d="M984 252.48 L984 307.52" stroke-width="18" stroke="rgba(17, 221, 148, 1)"></path><path d="M1008 219.37 L1008 237.37" stroke-width="18" stroke="rgba(17, 221, 148, 1)"></path><path d="M1008 264.37 L1008 282.37" stroke-width="18" stroke="rgba(71, 143, 221, 1)"></path><path d="M1008 309.37 L1008 340.63" stroke-width="18" stroke="rgba(71, 143, 221, 1)"></path><path d="M1032 188.93 L1032 371.07" stroke-width="18" stroke="rgba(17, 221, 148, 1)"></path></g></g><defs><mask id="SvgjsMask2528"><rect width="1440" height="560" fill="#ffffff"></rect></mask><linearGradient x1="50%" y1="0%" x2="50%" y2="100%" gradientUnits="userSpaceOnUse" id="SvgjsLinearGradient2529"><stop stop-color="rgba(244, 244, 244, 1)" offset="0"></stop><stop stop-color="rgba(226, 226, 226, 1)" offset="1"></stop></linearGradient></defs></svg>